<svg xmlns="http://www.w3.org/2000/svg" viewBox="0 0 84.2 113.5">
<title>Joy-Con pair</title>
<rect class="button" id="L4" x="36.1" y="30.7" width="3.8" height="8.8" rx="1.2"/>
<rect class="button" id="L5" x="36.1" y="72.9" width="3.8" height="8.8" rx="1.2"/>
<path class="trigger" id="LT" d="M9.4 15.6C8.35 15.29 7.09 12.73 7 11.8C6.91 10.87 7.99 8.44 8.6 7.6C9.21 6.76 11.2 5.12 12.2 4.6C13.2 4.07 16 3.24 17.2 3.1C18.4 2.96 21.45 3.13 22.5 3.4C23.55 3.67 25.61 4.79 26.2 5.4C26.79 6.01 27.51 7.77 27.6 8.6C27.69 9.43 28.35 11.81 27 12.5C25.65 13.19 18.05 14.14 16 14.5C13.95 14.86 10.45 15.91 9.4 15.6Z"/>
<path class="body" d="M27 10L33.6 10Q35 10 35 11.4L35 16Q35 16.4 35.4 16.4L37.4 16.4Q38.1 16.4 38.1 17.1L38.1 100.2Q38.1 100.9 37.4 100.9L35.4 100.9Q35 100.9 35 101.3L35 110.1Q35 111.5 33.6 111.5L27 111.5C26.33 111.5 24.27 111.58 23 111.5C21.73 111.42 20.6 111.29 19.4 111.05C18.2 110.81 17.03 110.49 15.8 110.05C14.57 109.61 13.2 109.09 12 108.4C10.8 107.71 9.6 106.83 8.6 105.9C7.6 104.97 6.75 103.9 6 102.8C5.25 101.7 4.62 100.52 4.1 99.3C3.58 98.08 3.2 96.77 2.9 95.5C2.6 94.23 2.45 93.03 2.3 91.7C2.15 90.37 2.05 89.45 2 87.5C1.95 85.55 2 82.5 2 80C2 77.5 2 75 2 72.5C2 70 2 67.67 2 65C2 62.33 2 59.17 2 56.5C2 53.83 2 51.5 2 49C2 46.5 2 44 2 41.5C2 39 1.95 35.95 2 34C2.05 32.05 2.15 31.13 2.3 29.8C2.45 28.47 2.6 27.27 2.9 26C3.2 24.73 3.58 23.42 4.1 22.2C4.62 20.98 5.25 19.8 6 18.7C6.75 17.6 7.6 16.53 8.6 15.6C9.6 14.67 10.8 13.79 12 13.1C13.2 12.41 14.57 11.89 15.8 11.45C17.03 11.01 18.2 10.69 19.4 10.45C20.6 10.21 21.73 10.07 23 10C24.27 9.93 26.33 10 27 10Z"/>
<rect class="panel" x="35" y="16.6" width="2.9" height="84.1" rx="0.5"/>
<path class="button" id="LB" d="M34.4 9.2C33.76 8.93 29.24 9 28 9C26.76 9 23 9.09 22 9.15C21 9.21 18.68 9.52 18 9.65C17.32 9.79 15.66 10.3 15.2 10.5C14.74 10.7 13.62 11.39 13.4 11.6C13.18 11.81 12.94 12.42 13 12.6C13.06 12.78 13.68 13.39 14 13.4C14.32 13.41 15.65 12.84 16.2 12.7C16.75 12.56 18.72 12.1 19.5 12C20.28 11.9 22.51 11.73 24 11.7C25.49 11.67 33.36 11.95 34.4 11.7C35.44 11.45 35.04 9.47 34.4 9.2Z"/>
<rect class="button" id="Back" x="27.3" y="19.1" width="5.4" height="1.8" rx="0.6"/>
<circle class="stick" id="LS" cx="19.4" cy="35" r="10.4"/>
<circle class="button" id="Up" cx="19.4" cy="55" r="3.8"/>
<path class="mark" data-on="Up" d="M19.4 54.15L18.55 55.51L20.25 55.51Z"/>
<circle class="button" id="Right" cx="27.4" cy="63" r="3.8"/>
<path class="mark" data-on="Right" d="M28.25 63L26.89 62.15L26.89 63.85Z"/>
<circle class="button" id="Down" cx="19.4" cy="71" r="3.8"/>
<path class="mark" data-on="Down" d="M19.4 71.85L20.25 70.49L18.55 70.49Z"/>
<circle class="button" id="Left" cx="11.4" cy="63" r="3.8"/>
<path class="mark" data-on="Left" d="M10.55 63L11.91 63.85L11.91 62.15Z"/>
<rect class="button" id="Misc" x="22" y="80" width="6" height="6" rx="0.9"/>
<circle class="glyph" cx="25" cy="83" r="1.9" data-on="Misc" stroke-width="0.45"/>
<rect class="button" id="R4" x="44.3" y="30.7" width="3.8" height="8.8" rx="1.2"/>
<rect class="button" id="R5" x="44.3" y="72.9" width="3.8" height="8.8" rx="1.2"/>
<path class="trigger" id="RT" d="M74.8 15.6C75.85 15.29 77.11 12.73 77.2 11.8C77.29 10.87 76.21 8.44 75.6 7.6C74.99 6.76 73 5.12 72 4.6C71 4.07 68.2 3.24 67 3.1C65.8 2.96 62.75 3.13 61.7 3.4C60.65 3.67 58.59 4.79 58 5.4C57.41 6.01 56.69 7.77 56.6 8.6C56.51 9.43 55.85 11.81 57.2 12.5C58.55 13.19 66.15 14.14 68.2 14.5C70.25 14.86 73.75 15.91 74.8 15.6Z"/>
<path class="body" d="M57.2 10L50.6 10Q49.2 10 49.2 11.4L49.2 16Q49.2 16.4 48.8 16.4L46.8 16.4Q46.1 16.4 46.1 17.1L46.1 100.2Q46.1 100.9 46.8 100.9L48.8 100.9Q49.2 100.9 49.2 101.3L49.2 110.1Q49.2 111.5 50.6 111.5L57.2 111.5C57.87 111.5 59.93 111.58 61.2 111.5C62.47 111.42 63.6 111.29 64.8 111.05C66 110.81 67.17 110.49 68.4 110.05C69.63 109.61 71 109.09 72.2 108.4C73.4 107.71 74.6 106.83 75.6 105.9C76.6 104.97 77.45 103.9 78.2 102.8C78.95 101.7 79.58 100.52 80.1 99.3C80.62 98.08 81 96.77 81.3 95.5C81.6 94.23 81.75 93.03 81.9 91.7C82.05 90.37 82.15 89.45 82.2 87.5C82.25 85.55 82.2 82.5 82.2 80C82.2 77.5 82.2 75 82.2 72.5C82.2 70 82.2 67.67 82.2 65C82.2 62.33 82.2 59.17 82.2 56.5C82.2 53.83 82.2 51.5 82.2 49C82.2 46.5 82.2 44 82.2 41.5C82.2 39 82.25 35.95 82.2 34C82.15 32.05 82.05 31.13 81.9 29.8C81.75 28.47 81.6 27.27 81.3 26C81 24.73 80.62 23.42 80.1 22.2C79.58 20.98 78.95 19.8 78.2 18.7C77.45 17.6 76.6 16.53 75.6 15.6C74.6 14.67 73.4 13.79 72.2 13.1C71 12.41 69.63 11.89 68.4 11.45C67.17 11.01 66 10.69 64.8 10.45C63.6 10.21 62.47 10.07 61.2 10C59.93 9.93 57.87 10 57.2 10Z"/>
<rect class="panel" x="46.3" y="16.6" width="2.9" height="84.1" rx="0.5"/>
<path class="button" id="RB" d="M49.8 9.2C50.44 8.93 54.96 9 56.2 9C57.44 9 61.2 9.09 62.2 9.15C63.2 9.21 65.52 9.52 66.2 9.65C66.88 9.79 68.54 10.3 69 10.5C69.46 10.7 70.58 11.39 70.8 11.6C71.02 11.81 71.26 12.42 71.2 12.6C71.14 12.78 70.52 13.39 70.2 13.4C69.88 13.41 68.55 12.84 68 12.7C67.45 12.56 65.48 12.1 64.7 12C63.92 11.9 61.69 11.73 60.2 11.7C58.71 11.67 50.84 11.95 49.8 11.7C48.76 11.45 49.16 9.47 49.8 9.2Z"/>
<path class="button" id="Start" d="M53.3 17.5L55.1 17.5L55.1 19.1L56.7 19.1L56.7 20.9L55.1 20.9L55.1 22.5L53.3 22.5L53.3 20.9L51.7 20.9L51.7 19.1L53.3 19.1Z"/>
<circle class="button" id="A" cx="64.8" cy="42.4" r="3.7"/>
<text class="label" data-on="A" x="64.8" y="42.4" font-size="3.7">B</text>
<circle class="button" id="B" cx="72.8" cy="35" r="3.7"/>
<text class="label" data-on="B" x="72.8" y="35" font-size="3.7">A</text>
<circle class="button" id="X" cx="56.8" cy="35" r="3.7"/>
<text class="label" data-on="X" x="56.8" y="35" font-size="3.7">Y</text>
<circle class="button" id="Y" cx="64.8" cy="27.6" r="3.7"/>
<text class="label" data-on="Y" x="64.8" y="27.6" font-size="3.7">X</text>
<circle class="stick" id="RS" cx="64.8" cy="63" r="10.4"/>
<circle class="button" id="Guide" cx="59.2" cy="83" r="3.4"/>
<path class="glyph" data-on="Guide" stroke-width="0.45" d="M58 84.14v-1.26l1.2 -1.02 1.2 1.02v1.26z"/>
</svg>
